<svg xmlns="http://www.w3.org/2000/svg" viewBox="0 0 168.52 238.97"><defs><style>.cls-1,.cls-7{fill:none;}.cls-1,.cls-5{stroke:#ffe761;}.cls-1,.cls-2,.cls-3,.cls-4,.cls-5,.cls-7,.cls-8{stroke-linecap:round;stroke-linejoin:round;}.cls-1,.cls-2,.cls-3,.cls-4,.cls-5,.cls-7{stroke-width:5px;}.cls-2,.cls-5{fill:#ffe761;}.cls-2,.cls-4,.cls-7,.cls-8{stroke:#536856;}.cls-3{fill:gray;stroke:#666;}.cls-4,.cls-6{fill:#fff;}.cls-8{fill:#c1272d;stroke-width:2.5px;}</style></defs><title>Middel 23</title><g id="Laag_2" data-name="Laag 2"><g id="alle_icons_1_kopie" data-name="alle icons 1 kopie"><line class="cls-1" x1="121.77" y1="82.5" x2="154.77" y2="82.5"/><line class="cls-1" x1="8.27" y1="82.5" x2="41.27" y2="82.5"/><line class="cls-1" x1="24.77" y1="21.83" x2="48.1" y2="45.17"/><line class="cls-1" x1="127.62" y1="21.83" x2="104.29" y2="45.17"/><line class="cls-1" x1="77.12" y1="2.5" x2="77.12" y2="35.5"/><path class="cls-2" d="M91.23,161.08c4.42-13.64,21.58,25.16,34,28.54,13.15,3.58,8.23-2.48,11.88.88,1,.9,7.5.37,7.5.37l4.15,6.17H118.29v38.22c-6.36-.43-13-2.45-16.13-8.33C95,213.69,86.81,174.72,91.23,161.08Z"/><path class="cls-3" d="M122.9,150a2.26,2.26,0,0,0,.16.82c.53-1.32,2.3-2.28,4.4-2.28s3.87,1,4.4,2.28A2.26,2.26,0,0,0,132,150c0-1.7-2.05-3.09-4.56-3.09S122.9,148.29,122.9,150Z"/><path class="cls-4" d="M164.34,236.47V196c0-6-3.87-8.87-10.32-10.27-.48-.1-4,.09-6.93.09-1.81,0-2,.22-2.35-.26,0,0-2.15,1.56-1.68,2.32l-1.6.16c-.33,0-.06-.16-1,0-4.54.84-5.08.91-5.28.92-4.06.21-1.88,0-3.72-.14l-2.71-.75c-7.39.1-3.17-6.57-5.21-4.06a6.43,6.43,0,0,1-.8.83l-.31.08-.14.05"/><path class="cls-4" d="M118.29,235.54V202.8L84.8,138.94V80.44l15,5.5v53.5l25.58,44.61s2,3.7,10.61,3.54,10.41-3.12,10.44-3.13"/><path class="cls-5" d="M144.43,186.19a4.49,4.49,0,0,1-.4-.37,18.91,18.91,0,0,1-8.76,1.88c-4,0-7.46-.93-9.51-2.34a6.43,6.43,0,0,1-.8.83l-.31.09-.14,0c1.57,2,5.8,3.5,10.76,3.5,4.66,0,8.66-1.28,10.44-3.13A3.51,3.51,0,0,1,144.43,186.19Z"/><rect class="cls-6" x="119.36" y="199.34" width="42.36" height="36.19"/><line class="cls-7" x1="150.84" y1="203.04" x2="150.84" y2="235.37"/><ellipse class="cls-4" cx="135.54" cy="155.91" rx="24.09" ry="31.25"/><path class="cls-2" d="M128.13,148.78a12.66,12.66,0,0,1-5.25-2.92,11.31,11.31,0,0,0-1.95-.18c-5.16,0-9.34,3.83-9.34,8.57a6.67,6.67,0,0,0-.06,1.72,12.18,12.18,0,0,1-7.09-11.14c0-6,4.4-11,10.36-12.36A18,18,0,0,1,122.1,121a19.28,19.28,0,0,1,14.46-4c7.06-4.44,15.63-4.17,19.79.85a9.65,9.65,0,0,1,1.8,3.31,14.42,14.42,0,0,1,1.48.53l.06,0a10.64,10.64,0,0,1,3.19,2.2.6.6,0,0,1,.08.08A13.6,13.6,0,0,1,166,133a13,13,0,0,1-3.81,9.67,21.09,21.09,0,0,1,.63,5.34c0,5-1.45,9-3.24,9h-.13l-.74-.32a20,20,0,0,1-8.8-8.54c-.23-.39-.44-.8-.64-1.22a21,21,0,0,1-2-7,.22.22,0,0,1,0-.08.29.29,0,0,1,0,.09,12.08,12.08,0,0,1-6,7.59,15.31,15.31,0,0,1-7.52,1.94h-.1a15.7,15.7,0,0,1-2.49-.11S128.33,148.84,128.13,148.78Z"/><path class="cls-8" d="M138.62,162a2.1,2.1,0,0,0,.16.82c.53-1.32,2.3-2.28,4.4-2.28s3.86,1,4.39,2.28a2.11,2.11,0,0,0,.17-.82c0-1.71-2.05-3.09-4.56-3.09S138.62,160.29,138.62,162Z"/><path class="cls-8" d="M132.78,161.52a2.08,2.08,0,0,1-.17.82c-.53-1.32-2.29-2.28-4.4-2.28s-3.86,1-4.39,2.28a2.07,2.07,0,0,1-.16-.82c0-1.7,2-3.09,4.55-3.09S132.78,159.82,132.78,161.52Z"/><path class="cls-2" d="M77.29,160.62c-4.42-13.65-21.57,25.16-34,28.53-13.15,3.59-8.23-2.48-11.88.88-1,.9-7.5.37-7.5.37l-4.14,6.18H50.24V234.8c6.35-.44,12.94-2.46,16.13-8.33C73.55,213.22,81.72,174.26,77.29,160.62Z"/><path class="cls-3" d="M45.62,149.53a2.14,2.14,0,0,1-.16.82c-.53-1.32-2.3-2.29-4.4-2.29s-3.86,1-4.39,2.29a2.15,2.15,0,0,1-.17-.82c0-1.71,2-3.1,4.56-3.1S45.62,147.82,45.62,149.53Z"/><path class="cls-4" d="M4.18,236V195.57c0-6,3.87-8.87,10.32-10.27.48-.1,3.95.1,6.93.1,1.81,0,2,.21,2.36-.26,0,0,2.14,1.56,1.68,2.31l1.59.16c.33,0,.07-.16,1,0,4.54.83,5.08.91,5.27.92,4.07.2,1.88,0,3.73-.15l2.7-.75c7.4.11,3.17-6.57,5.21-4.06a6.43,6.43,0,0,0,.8.83l.31.08.14.05"/><path class="cls-4" d="M50.24,235.07V202.33l33.49-63.86V80l-15,5.5V139L43.16,183.58s-2,3.7-10.61,3.54S22.14,184,22.11,184"/><path class="cls-5" d="M24.1,185.72a4.49,4.49,0,0,0,.4-.37,18.91,18.91,0,0,0,8.76,1.88c4,0,7.46-.93,9.51-2.34a6.43,6.43,0,0,0,.8.83l.3.09.15,0c-1.57,2-5.8,3.5-10.76,3.5-4.66,0-8.66-1.28-10.44-3.13A3.51,3.51,0,0,0,24.1,185.72Z"/><rect class="cls-6" x="7.47" y="198.88" width="41.7" height="36.19" transform="translate(56.63 433.95) rotate(-180)"/><line class="cls-7" x1="17.68" y1="202.58" x2="17.68" y2="234.9"/><ellipse class="cls-4" cx="32.98" cy="155.45" rx="24.09" ry="31.25"/><path class="cls-2" d="M40.39,148.32a12.5,12.5,0,0,0,5.25-2.93,11.31,11.31,0,0,1,2-.18c5.16,0,9.34,3.84,9.34,8.57A6.67,6.67,0,0,1,57,155.5a12.18,12.18,0,0,0,7.1-11.14c0-5.94-4.41-10.94-10.36-12.36a18,18,0,0,0-7.31-11.47,19.24,19.24,0,0,0-14.46-4c-7.06-4.43-15.63-4.17-19.79.85a9.61,9.61,0,0,0-1.8,3.32,15.13,15.13,0,0,0-1.47.53l-.06,0a10.71,10.71,0,0,0-3.2,2.19.6.6,0,0,1-.08.08,13.67,13.67,0,0,0-3.06,8.93,13.07,13.07,0,0,0,3.81,9.68,21.06,21.06,0,0,0-.63,5.33c0,5,1.45,9,3.25,9h.13c.25-.11.5-.21.74-.33a20.15,20.15,0,0,0,8.8-8.54c.23-.39.44-.8.64-1.21a21.36,21.36,0,0,0,2-7,.22.22,0,0,0,0-.08.29.29,0,0,0,0,.09,12.12,12.12,0,0,0,6,7.59A15.23,15.23,0,0,0,34.79,149h.1a17,17,0,0,0,2.49-.1S40.2,148.38,40.39,148.32Z"/><path class="cls-8" d="M29.91,161.53a2.08,2.08,0,0,1-.17.82c-.53-1.32-2.29-2.28-4.4-2.28s-3.86,1-4.39,2.28a2.07,2.07,0,0,1-.16-.82c0-1.7,2-3.09,4.55-3.09S29.91,159.83,29.91,161.53Z"/><path class="cls-8" d="M35.75,161.06a2.14,2.14,0,0,0,.16.82c.53-1.32,2.3-2.29,4.4-2.29s3.86,1,4.39,2.29a2.15,2.15,0,0,0,.17-.82c0-1.71-2-3.1-4.56-3.1S35.75,159.35,35.75,161.06Z"/></g></g></svg>