<svg xmlns="http://www.w3.org/2000/svg" viewBox="0 0 151.5 180.11"><defs><style>.cls-1,.cls-5,.cls-8{fill:#ffe761;}.cls-1,.cls-3,.cls-4,.cls-8{stroke:#536856;}.cls-1,.cls-2,.cls-3,.cls-4,.cls-5,.cls-6,.cls-7,.cls-8{stroke-linecap:round;stroke-linejoin:round;}.cls-1,.cls-2,.cls-3,.cls-4,.cls-5,.cls-6,.cls-7{stroke-width:5px;}.cls-2{fill:#c1272d;stroke:#666;}.cls-3{fill:#fff;}.cls-4,.cls-7{fill:none;}.cls-5,.cls-7{stroke:#ffe761;}.cls-6{fill:gray;stroke:#c1272d;}.cls-8{stroke-width:2.5px;}</style></defs><title>Middel 20</title><g id="Laag_2" data-name="Laag 2"><g id="alle_icons_1_kopie" data-name="alle icons 1 kopie"><path class="cls-1" d="M63.6,124.92s-7.46,1.38-11.8.88-10.32,3.67-10.32,9.33V176.5H26.62s-4-16.75,2-31.72,15-19.67,18.8-20.68,6.14-2.55,14.92-.14C62.36,124,64.4,124,63.6,124.92Z"/><path class="cls-1" d="M82.7,124.67s7.94,2.26,12.11,1.76,9.91,3.67,9.91,9.33.25,40.74.25,40.74h13.32s4.52-16.12-1.24-31.09S102.61,125.74,99,124.73s-6.33-3.69-14.76-1.28C84.23,123.45,81.93,123.79,82.7,124.67Z"/><path class="cls-2" d="M82.17,124.1l1.13,1s-2.66,3.85-11.41,3.43-9.34-3.26-9.34-3.26l1.24-.79s3.84,2,6.68,1.82S75.94,127.39,82.17,124.1Z"/><path class="cls-1" d="M85,161c0-14.5-5.42-27.24-13.63-34.6a24.27,24.27,0,0,0-16.25-6.63c-16.5,0-29.87,18.46-29.87,41.23a56,56,0,0,0,1.4,12.54"/><path class="cls-1" d="M59.94,161c0-14.5,5.42-27.24,13.62-34.6a24.27,24.27,0,0,1,16.26-6.63c16.5,0,29.87,18.46,29.87,41.23a56,56,0,0,1-1.4,12.54"/><path class="cls-3" d="M41.74,177.61V137.18c0-6,3.87-8.88,10.32-10.27.48-.11,3.09,0,6.07,0a25.44,25.44,0,0,0,4.45-.33l.14,0h0a1.57,1.57,0,0,0,1.12-.47,4.49,4.49,0,0,0,.4-.37c2.11-2.19,4.89-8.36,6.93-15.73H76c1.91,6.92,4.48,12.76,6.52,15.27a6.43,6.43,0,0,0,.8.83l.31.08.14,0a16.56,16.56,0,0,0,5.43.7c3,0,5.65-.31,6.16-.2,6.48,1.37,9.86,4.65,9.86,10.52v40.43"/><line class="cls-4" x1="55.97" y1="143.77" x2="55.97" y2="176.2"/><line class="cls-4" x1="90.48" y1="143.77" x2="90.48" y2="176.2"/><path class="cls-5" d="M61.83,124.45a2.06,2.06,0,0,0,1.25-.55,3.51,3.51,0,0,0,.45-.42,20.69,20.69,0,0,0,9.82,2.17c4.44,0,8.36-1.08,10.66-2.71a6.57,6.57,0,0,0,.9,1l.34.11.16,0c-1.76,2.36-6.5,4-12.06,4-5.22,0-9.7-1.48-11.7-3.62Z"/><path class="cls-6" d="M69.15,94a2.1,2.1,0,0,1-.16.82c-.53-1.32-2.3-2.28-4.4-2.28s-3.86,1-4.39,2.28A2.11,2.11,0,0,1,60,94c0-1.71,2-3.09,4.56-3.09S69.15,92.25,69.15,94Z"/><path class="cls-6" d="M84.87,94a2.3,2.3,0,0,1-.16.82c-.53-1.32-2.3-2.28-4.4-2.28s-3.87,1-4.4,2.28a2.3,2.3,0,0,1-.16-.82c0-1.71,2-3.09,4.56-3.09S84.87,92.25,84.87,94Z"/><line class="cls-7" x1="116" y1="82.5" x2="149" y2="82.5"/><line class="cls-7" x1="2.5" y1="82.5" x2="35.5" y2="82.5"/><line class="cls-7" x1="19" y1="21.83" x2="42.33" y2="45.17"/><line class="cls-7" x1="121.85" y1="21.83" x2="98.52" y2="45.17"/><line class="cls-7" x1="71.35" y1="2.5" x2="71.35" y2="35.5"/><ellipse class="cls-3" cx="73.23" cy="93.35" rx="24.37" ry="31.6"/><path class="cls-1" d="M80.94,85.13a12.44,12.44,0,0,0,5.25-2.93,11.31,11.31,0,0,1,2-.18c5.16,0,9.34,3.84,9.34,8.57a6.67,6.67,0,0,1,.06,1.72,12.18,12.18,0,0,0,7.1-11.14c0-5.94-4.41-10.94-10.36-12.36A18,18,0,0,0,87,57.34a19.24,19.24,0,0,0-14.46-4c-7.05-4.43-15.63-4.17-19.79.85a9.61,9.61,0,0,0-1.8,3.32,15.13,15.13,0,0,0-1.47.53l-.06,0a10.71,10.71,0,0,0-3.2,2.19.6.6,0,0,1-.08.08,13.68,13.68,0,0,0-3.06,8.94A13.06,13.06,0,0,0,46.86,79a21.06,21.06,0,0,0-.63,5.33c0,5,1.45,9,3.25,9h.13c.25-.11.5-.21.74-.33a20.15,20.15,0,0,0,8.8-8.54c.23-.39.44-.79.64-1.21a21.36,21.36,0,0,0,2-7,.2.2,0,0,0,0-.07.31.31,0,0,0,0,.08,12.09,12.09,0,0,0,6,7.59,15.25,15.25,0,0,0,7.53,1.94h.1a16.92,16.92,0,0,0,2.48-.1S80.75,85.19,80.94,85.13Z"/><path class="cls-8" d="M70.42,98.05a2.15,2.15,0,0,1-.16.83c-.54-1.34-2.33-2.31-4.45-2.31s-3.91,1-4.45,2.31a2.35,2.35,0,0,1-.16-.83c0-1.73,2.07-3.13,4.61-3.13S70.42,96.32,70.42,98.05Z"/><path class="cls-8" d="M86.32,98.05a2.16,2.16,0,0,1-.17.83c-.53-1.34-2.32-2.31-4.45-2.31s-3.91,1-4.44,2.31a2.16,2.16,0,0,1-.17-.83c0-1.73,2.07-3.13,4.61-3.13S86.32,96.32,86.32,98.05Z"/></g></g></svg>