<svg xmlns="http://www.w3.org/2000/svg" viewBox="0 0 189.73 203.17"><defs><style>.cls-1,.cls-5{fill:#ffe761;}.cls-1,.cls-2,.cls-4,.cls-5{stroke:#536856;}.cls-1,.cls-2,.cls-3,.cls-4,.cls-5{stroke-linecap:round;stroke-linejoin:round;}.cls-1,.cls-2,.cls-3,.cls-4{stroke-width:5px;}.cls-2{fill:#fff;}.cls-3{fill:#fcee21;stroke:#fcee21;}.cls-4{fill:none;}.cls-5{stroke-width:2.5px;}</style></defs><title>Middel 21</title><g id="Laag_2" data-name="Laag 2"><g id="alle_icons_1_kopie" data-name="alle icons 1 kopie"><path class="cls-1" d="M5.38,164.73s.06,0,.16,0c2.39.18,23.74,1.33,56.86,22.63,35.64,22.92,47.23,9.24,47.23,9.24s38.16-45.3,37.12-50-34.15-1-34.15-1-3.84,12.8-12.08,16.13S65.05,154,61.07,146.64,26.16,142.3,16,149.13-1.94,159.9,5.38,164.73Z"/><path class="cls-2" d="M151.59,197l-.8-50.76h-.73a23.92,23.92,0,0,1-3.28-.21H122.66a29.28,29.28,0,0,1-3.68.21c-3,0-5.59-.05-6.07,0-6.45,1.4,3.92,3.1,3.92,9.1V197Z"/><path class="cls-3" d="M143.21,143.91l1.14,1s-2.67,3.85-11.42,3.42-9.33-3.25-9.33-3.25l1.23-.8s3.84,2,6.68,1.82S137,147.21,143.21,143.91Z"/><polyline class="cls-2" points="121.03 145.57 84.08 119.09 83.98 67.11 69.4 71.97 69.4 126.47 119.3 163.47 119.3 196.32"/><line class="cls-3" x1="118.92" y1="146.57" x2="123.4" y2="146.24"/><path class="cls-1" d="M173.42,27.37l13.81,9.06-5.36,9.49L165,33.33S115.13,8.74,72.89,93.15c0,0-13,4.85-12.93-20.5s29.49-55.33,40.93-61.2S146.7-3.29,158.11,7.78,173.42,27.37,173.42,27.37Z"/><path class="cls-4" d="M151.53,22.23s-46.43-8.51-82.25,62"/><path class="cls-2" d="M151.53,196.32V163.58L185,99.72V41.22l-15,5.5v53.5l-25.58,44.61s-2,3.7-10.61,3.54-10.41-3.12-10.44-3.13"/><path class="cls-3" d="M125.11,144.53a18.91,18.91,0,0,0,8.76,1.88c4,0,7.46-.93,9.51-2.34a6.43,6.43,0,0,0,.8.83l.31.09.14,0c-1.57,2-5.8,3.5-10.76,3.5-4.66,0-8.66-1.28-10.44-3.13"/><ellipse class="cls-2" cx="133.27" cy="114.33" rx="24.37" ry="31.6"/><path class="cls-1" d="M140.68,107.56a12.66,12.66,0,0,0,5.25-2.92,11.31,11.31,0,0,1,1.95-.18c5.16,0,9.34,3.84,9.34,8.57a6.67,6.67,0,0,1,.06,1.72,12.18,12.18,0,0,0,7.09-11.14c0-5.94-4.4-11-10.36-12.36a17.94,17.94,0,0,0-7.3-11.48,19.28,19.28,0,0,0-14.46-4c-7.06-4.44-15.63-4.17-19.79.85a9.65,9.65,0,0,0-1.8,3.31q-.76.24-1.47.54l-.06,0a10.74,10.74,0,0,0-3.2,2.2.6.6,0,0,0-.08.08,13.67,13.67,0,0,0-3.06,8.93,13,13,0,0,0,3.81,9.67,21.15,21.15,0,0,0-.63,5.34c0,5,1.45,9,3.25,9h.13c.24-.1.49-.2.73-.32a20.12,20.12,0,0,0,8.81-8.54c.23-.39.44-.8.63-1.21a21.14,21.14,0,0,0,2-7,.22.22,0,0,0,0-.08.29.29,0,0,0,0,.09,12.08,12.08,0,0,0,6,7.59,15.21,15.21,0,0,0,7.52,1.94h.1a15.7,15.7,0,0,0,2.49-.11S140.49,107.62,140.68,107.56Z"/><path class="cls-5" d="M130.16,120.49a2.4,2.4,0,0,1-.16.83c-.54-1.34-2.33-2.31-4.46-2.31s-3.9,1-4.44,2.31a2.19,2.19,0,0,1-.16-.83c0-1.73,2.07-3.13,4.6-3.13S130.16,118.76,130.16,120.49Z"/><path class="cls-5" d="M146.06,120.49a2.2,2.2,0,0,1-.17.83c-.54-1.34-2.32-2.31-4.45-2.31s-3.91,1-4.44,2.31a2.2,2.2,0,0,1-.17-.83c0-1.73,2.07-3.13,4.61-3.13S146.06,118.76,146.06,120.49Z"/></g></g></svg>