<svg xmlns="http://www.w3.org/2000/svg" viewBox="0 0 213.56 196.45"><defs><style>.cls-1{fill:#ffe761;}.cls-1,.cls-3,.cls-5{stroke:#536856;}.cls-1,.cls-2,.cls-3,.cls-4,.cls-5{stroke-linecap:round;stroke-linejoin:round;}.cls-1,.cls-2,.cls-3,.cls-4{stroke-width:5px;}.cls-2,.cls-3{fill:#fff;}.cls-2{stroke:#fff;}.cls-4{fill:none;stroke:#ffe761;}.cls-5{fill:#c1272d;stroke-width:2.5px;}</style></defs><title>Middel 22</title><g id="Laag_2" data-name="Laag 2"><g id="alle_icons_1_kopie" data-name="alle icons 1 kopie"><path class="cls-1" d="M105.17,147.8S75.91,133.44,72,129.1s-21.54-10.24-24.25-13.62-17-11-32.66,0-14.67,22.68-8,32.32,25.33,5,35.33,16.64S65.87,190.1,83,190.77,105.17,147.8,105.17,147.8Z"/><path class="cls-2" d="M136.11,194l-.82-49.25h-.73a17.31,17.31,0,0,1-5.47-.68L129,144l-.31-.08a4.81,4.81,0,0,1-.53-.5H109.55l-.13.14a3.3,3.3,0,0,1-.41.36,1.61,1.61,0,0,1-1.13.46h0l-.14,0a27,27,0,0,1-4.48.32c-3,0-5.64-.05-6.12,0-6.5,1.35,3.95,3,3.95,8.82V194Z"/><path class="cls-3" d="M136.1,193.89V161.16l33.49-63.87V38.79l-15,5.5v53.5L129,142.41s-2,3.69-10.62,3.54S108,142.82,108,142.82"/><path class="cls-4" d="M109.22,143.65a4.49,4.49,0,0,0,.4-.37,18.91,18.91,0,0,0,8.76,1.88c4,0,7.46-.93,9.51-2.34a6.43,6.43,0,0,0,.8.83l.31.09.14,0c-1.57,2-5.8,3.5-10.76,3.5-4.66,0-8.66-1.28-10.44-3.13A3.51,3.51,0,0,0,109.22,143.65Z"/><polyline class="cls-3" points="101.34 193.89 101.34 161.04 53.85 124.04 53.85 69.54 67.72 64.68 67.82 116.66 102.98 143.14"/><line class="cls-4" x1="102.5" y1="145.11" x2="108.08" y2="144.79"/><polygon class="cls-1" points="210.79 22.47 210.97 22.18 199.5 15.56 199.33 15.85 176.2 2.5 169.59 13.96 184.18 22.39 31.92 72.29 36.04 84.87 188.29 34.97 179.38 50.41 190.84 57.03 204.18 33.93 204.44 34.08 211.06 22.62 210.79 22.47"/><ellipse class="cls-3" cx="118.84" cy="113.27" rx="24.09" ry="31.25"/><path class="cls-1" d="M126.25,106.14a12.53,12.53,0,0,0,5.25-2.92,10.4,10.4,0,0,1,1.95-.18c5.16,0,9.34,3.83,9.34,8.57a6.58,6.58,0,0,1,.06,1.71,12.17,12.17,0,0,0,7.1-11.14c0-5.94-4.4-10.94-10.36-12.36a18,18,0,0,0-7.31-11.47,19.24,19.24,0,0,0-14.46-4c-7-4.43-15.63-4.16-19.79.86a9.47,9.47,0,0,0-1.8,3.31,15.13,15.13,0,0,0-1.47.53l-.06,0a10.71,10.71,0,0,0-3.2,2.19l-.08.09a13.63,13.63,0,0,0-3.06,8.93A13.06,13.06,0,0,0,92.17,100a21.06,21.06,0,0,0-.63,5.33c0,5,1.45,9,3.25,9h.13l.74-.32a20.26,20.26,0,0,0,8.8-8.54c.23-.39.44-.8.64-1.22a21.36,21.36,0,0,0,2-7,.15.15,0,0,0,0-.07.19.19,0,0,0,0,.08,12.13,12.13,0,0,0,6,7.6,15.35,15.35,0,0,0,7.53,1.93h.1a16.92,16.92,0,0,0,2.48-.1S126.06,106.2,126.25,106.14Z"/><path class="cls-5" d="M115.77,119.36a2.34,2.34,0,0,1-.16.82c-.53-1.32-2.3-2.28-4.41-2.28s-3.86,1-4.39,2.28a2.14,2.14,0,0,1-.16-.82c0-1.71,2-3.1,4.55-3.1S115.77,117.65,115.77,119.36Z"/><path class="cls-5" d="M131.48,119.36a2.14,2.14,0,0,1-.16.82c-.53-1.32-2.3-2.28-4.4-2.28s-3.86,1-4.39,2.28a2.15,2.15,0,0,1-.17-.82c0-1.71,2-3.1,4.56-3.1S131.48,117.65,131.48,119.36Z"/></g></g></svg>