<svg xmlns="http://www.w3.org/2000/svg" viewBox="0 0 123.18 45.28"><defs><style>.cls-1{fill:#fff;}</style></defs><title>Middel 1</title><g id="Laag_2" data-name="Laag 2"><g id="Laag_1-2" data-name="Laag 1"><path class="cls-1" d="M116.39,9.81a7.7,7.7,0,0,1,.53-1.25c.29-.07.57-.18.85-.27l1.7-.58,1.69-.57.85-.29a9.45,9.45,0,0,1,1.17.66,8.4,8.4,0,0,1-.53,1.24L121.8,9l-1.69.58-1.7.57c-.28.1-.57.18-.84.3A8.08,8.08,0,0,1,116.39,9.81Z"/><path class="cls-1" d="M114.37,7a7.58,7.58,0,0,1-.47-1.29c.16-.26.28-.54.43-.82l.85-1.64L116,1.64l.43-.82a9.85,9.85,0,0,1,1.31-.36,10.56,10.56,0,0,1,.46,1.28l-.42.82L117,4.21l-.85,1.64c-.14.28-.3.55-.42.83A7.41,7.41,0,0,1,114.37,7Z"/><path class="cls-1" d="M115.8,12.79a7.92,7.92,0,0,1,1.25-.48c.25.16.52.29.77.43l1.55.83,1.55.84.77.41a7.77,7.77,0,0,1,.3,1.3,8.27,8.27,0,0,1-1.24.46l-.78-.41-1.55-.84-1.55-.83c-.26-.13-.51-.29-.78-.41A8.37,8.37,0,0,1,115.8,12.79Z"/><path class="cls-1" d="M54.29,36.58,52.65,31.3l51.58-19.74,8.26-1.24.68,1.84-7.52,4.61Zm.82-4.09.45,1.45,49.29-19L108,13l-3.31.5Z"/><path class="cls-1" d="M7.7,41a2.54,2.54,0,0,1-.15,2.28,3.66,3.66,0,0,1-2,1.59,6.71,6.71,0,0,1-2,.4A6,6,0,0,1,1.41,45l.46-1.81A4.6,4.6,0,0,0,5,43.12a1.34,1.34,0,0,0,.63-.44.55.55,0,0,0,.08-.56.72.72,0,0,0-.56-.4,4.34,4.34,0,0,0-1.2-.06q-.77,0-1.17,0a5.87,5.87,0,0,1-1-.13A2,2,0,0,1,.17,40.21,2.4,2.4,0,0,1,.38,38,4,4,0,0,1,2.46,36.4a5.49,5.49,0,0,1,3.26-.13l-.27,1.84a4,4,0,0,0-2.4.09c-.7.27-1,.59-.83,1a.59.59,0,0,0,.52.37,6.51,6.51,0,0,0,1.27,0c.58,0,1,0,1.24,0a6.16,6.16,0,0,1,.94.1A2,2,0,0,1,7.7,41Z"/><path class="cls-1" d="M10.58,35.33,12,39a1.11,1.11,0,0,0,.52.64.82.82,0,0,0,.68,0,1.4,1.4,0,0,0,.86-1L15.5,40a3.57,3.57,0,0,1-1.87,1.83A2.92,2.92,0,0,1,9.73,40L8.28,36.21l-.95.37L6.7,34.94l1-.37-.94-2.44L9,31.25,10,33.69l2-.75.63,1.64Z"/><path class="cls-1" d="M20.86,34.56l-1.68-4.4,2.29-.88,3.13,8.17-2.3.88-.41-1.08a2.8,2.8,0,0,1-1.73,2,3.44,3.44,0,0,1-2.58,0,3.51,3.51,0,0,1-1.87-2.15l-1.89-4.95,2.29-.88,1.7,4.45c.48,1.26,1.19,1.71,2.11,1.35a1.76,1.76,0,0,0,1-.94A2.06,2.06,0,0,0,20.86,34.56Z"/><path class="cls-1" d="M30.07,35.49A3.69,3.69,0,0,1,27,35.25a4.67,4.67,0,0,1-2.31-2.61,4.48,4.48,0,0,1,0-3.41,3.7,3.7,0,0,1,2.15-2.15,3.36,3.36,0,0,1,2.83.11l-1.53-4,2.27-.88,4.32,11.27-2.28.87L32,33.37A3.17,3.17,0,0,1,30.07,35.49Zm-3-3.64a2.43,2.43,0,0,0,1.21,1.39,2,2,0,0,0,1.62.1A1.85,1.85,0,0,0,31,32.2a2.56,2.56,0,0,0-.07-1.84,2.69,2.69,0,0,0-1.19-1.44,1.81,1.81,0,0,0-1.61-.14A1.9,1.9,0,0,0,27,30,2.63,2.63,0,0,0,27,31.85Z"/><path class="cls-1" d="M33.53,23.47a1.45,1.45,0,0,1-.73-1.89,1.38,1.38,0,0,1,.8-.75,1.36,1.36,0,0,1,1.1,0,1.44,1.44,0,0,1,.75.8,1.43,1.43,0,0,1-.83,1.85A1.38,1.38,0,0,1,33.53,23.47Zm5.61,8.41-2.28.87-3.13-8.16L36,23.71Z"/><path class="cls-1" d="M47.91,27.16a4.86,4.86,0,0,1-2.74,2.55,4.64,4.64,0,0,1-3.51,0,4.29,4.29,0,0,1-2.39-2.61,4.27,4.27,0,0,1,.06-3.54,4.72,4.72,0,0,1,5.74-2.33,3.7,3.7,0,0,1,2.24,2.34l.47,1.21-6,2.28a1.75,1.75,0,0,0,1.12.83,2.38,2.38,0,0,0,1.49-.09,2.83,2.83,0,0,0,1.67-1.56Zm-4-4a1.86,1.86,0,0,0-1.29,0,2.18,2.18,0,0,0-1.08.89,1.65,1.65,0,0,0-.23,1.35l3.58-1.37A1.73,1.73,0,0,0,43.87,23.16Z"/><path class="cls-1" d="M56.49,20.19l1.68,4.4-2.29.88L54.17,21a2.94,2.94,0,0,0-.84-1.32,1.14,1.14,0,0,0-1.13-.08,1.71,1.71,0,0,0-1,.94,2.08,2.08,0,0,0,0,1.64L53,26.59l-2.28.87L47.55,19.3l2.27-.87.36.92a3,3,0,0,1,1.75-1.89,2.58,2.58,0,0,1,1.58-.08,3.12,3.12,0,0,1,1.37.75,3.4,3.4,0,0,1,.82-1.64,3.77,3.77,0,0,1,1.45-1,3.48,3.48,0,0,1,2.65,0,3.51,3.51,0,0,1,1.83,2.15l1.9,5-2.29.88L59.53,19c-.48-1.26-1.18-1.71-2.1-1.36a1.76,1.76,0,0,0-1,.95A2.05,2.05,0,0,0,56.49,20.19Z"/><path class="cls-1" d="M72.53,19.1l-2.14.81-.38-1a2.87,2.87,0,0,1-1.75,1.94,3.47,3.47,0,0,1-2.47.08,2.65,2.65,0,0,1-1.64-1.66,2.28,2.28,0,0,1,.19-2.23,4.7,4.7,0,0,1,2.25-1.57l1.7-.65,0-.05A1.27,1.27,0,0,0,66.39,14a4.17,4.17,0,0,0-1.16.72,4.12,4.12,0,0,0-.89,1l-1.58-1.08A6.54,6.54,0,0,1,66,12.08a4.05,4.05,0,0,1,2.72-.18,3,3,0,0,1,1.84,2Zm-3.48-2.24-.15-.39L67.47,17c-.91.35-1.26.81-1,1.38a.86.86,0,0,0,.58.55,1.71,1.71,0,0,0,1-.13A1.78,1.78,0,0,0,69,18,1.3,1.3,0,0,0,69.05,16.86Z"/><path class="cls-1" d="M81.55,15.64l-2.14.82-.38-1a2.87,2.87,0,0,1-1.75,1.94,3.47,3.47,0,0,1-2.47.08,2.68,2.68,0,0,1-1.65-1.67,2.26,2.26,0,0,1,.2-2.22A4.54,4.54,0,0,1,75.61,12l1.7-.66,0,0a1.27,1.27,0,0,0-1.88-.78,3.82,3.82,0,0,0-1.16.72,4.39,4.39,0,0,0-.9,1l-1.58-1.08A6.57,6.57,0,0,1,75,8.63a4.09,4.09,0,0,1,2.71-.19,3,3,0,0,1,1.84,2Zm-3.49-2.23-.15-.4-1.42.55c-.91.35-1.26.81-1,1.37a.8.8,0,0,0,.58.55,1.59,1.59,0,0,0,1-.12,1.71,1.71,0,0,0,.93-.78A1.27,1.27,0,0,0,78.06,13.41Z"/><path class="cls-1" d="M83.75,7.31,85.15,11a1.14,1.14,0,0,0,.53.65.81.81,0,0,0,.68,0,1.39,1.39,0,0,0,.85-1l1.46,1.27a3.52,3.52,0,0,1-1.86,1.83,3,3,0,0,1-2.29,0A3,3,0,0,1,82.9,12L81.46,8.19l-.95.37-.63-1.64,1-.37L79.9,4.11l2.29-.88.94,2.45,2-.76.63,1.64Z"/><path class="cls-1" d="M91.05,12.18,87.86,3.85,90.13,3l3.26,8.51a2.91,2.91,0,0,1-1.69,4,3.5,3.5,0,0,1-2.61-.12l.4-2.08a1.46,1.46,0,0,0,1.22.14.67.67,0,0,0,.41-.43A1.15,1.15,0,0,0,91.05,12.18Zm-3.4-9.43A1.44,1.44,0,0,1,86.9,2,1.43,1.43,0,0,1,87.73.1a1.38,1.38,0,0,1,1.09,0,1.32,1.32,0,0,1,.75.8,1.33,1.33,0,0,1,0,1.09,1.38,1.38,0,0,1-.8.75A1.36,1.36,0,0,1,87.65,2.75Z"/><path class="cls-1" d="M102,6.44A4.93,4.93,0,0,1,99.3,9a4.64,4.64,0,0,1-3.51,0A4.31,4.31,0,0,1,93.4,6.41a4.19,4.19,0,0,1,.06-3.54A4.44,4.44,0,0,1,95.94.61,4.54,4.54,0,0,1,99.2.53a3.75,3.75,0,0,1,2.24,2.34l.47,1.22L96,6.37a1.71,1.71,0,0,0,1.11.82,2.34,2.34,0,0,0,1.5-.08,2.83,2.83,0,0,0,1.67-1.56Zm-4-4a1.89,1.89,0,0,0-1.3,0,2.21,2.21,0,0,0-1.08.88,1.71,1.71,0,0,0-.23,1.36L99,3.35A1.75,1.75,0,0,0,98,2.43Z"/></g></g></svg>